<mxfile host="Electron" agent="Mozilla/5.0 (Windows NT 10.0; Win64; x64) AppleWebKit/537.36 (KHTML, like Gecko) draw.io/26.0.16 Chrome/132.0.6834.196 Electron/34.2.0 Safari/537.36" version="26.0.16">
  <diagram name="Page-1" id="hxVAqwwzsT_tMbgGRzhJ">
    <mxGraphModel dx="2924" dy="1196" grid="1" gridSize="10" guides="1" tooltips="1" connect="1" arrows="1" fold="1" page="1" pageScale="1" pageWidth="850" pageHeight="1100" math="0" shadow="0">
      <root>
        <mxCell id="0" />
        <mxCell id="1" parent="0" />
        <mxCell id="U5PggvFnBhWdndm3iS-v-8" style="edgeStyle=orthogonalEdgeStyle;rounded=0;orthogonalLoop=1;jettySize=auto;html=1;exitX=0.988;exitY=0.719;exitDx=0;exitDy=0;exitPerimeter=0;entryX=0;entryY=0.5;entryDx=0;entryDy=0;" parent="1" target="U5PggvFnBhWdndm3iS-v-3" edge="1">
          <mxGeometry relative="1" as="geometry">
            <mxPoint x="198.00000000000026" y="479.41" as="sourcePoint" />
            <mxPoint x="400" y="480" as="targetPoint" />
            <Array as="points" />
          </mxGeometry>
        </mxCell>
        <mxCell id="U5PggvFnBhWdndm3iS-v-12" style="edgeStyle=orthogonalEdgeStyle;rounded=0;orthogonalLoop=1;jettySize=auto;html=1;exitX=-0.015;exitY=0.873;exitDx=0;exitDy=0;entryX=1;entryY=0.5;entryDx=0;entryDy=0;exitPerimeter=0;" parent="1" source="U5PggvFnBhWdndm3iS-v-2" target="U5PggvFnBhWdndm3iS-v-4" edge="1">
          <mxGeometry relative="1" as="geometry" />
        </mxCell>
        <mxCell id="U5PggvFnBhWdndm3iS-v-2" value="&lt;pre style=&quot;font-family: var(--ds-font-family-code); overflow: auto; padding: calc(var(--ds-md-zoom)*8px)calc(var(--ds-md-zoom)*12px); text-wrap-mode: wrap; word-break: break-all; font-size: 12.573px; margin-top: 0px !important; margin-bottom: 0px !important;&quot;&gt;&lt;span&gt;&lt;font style=&quot;color: rgb(0, 0, 0);&quot;&gt;&amp;lt;&amp;lt;window&amp;gt;&amp;gt;  &lt;br&gt;Home Screen&lt;/font&gt;&lt;/span&gt;&lt;/pre&gt;&lt;pre style=&quot;font-family: var(--ds-font-family-code); overflow: auto; padding: calc(var(--ds-md-zoom)*8px)calc(var(--ds-md-zoom)*12px); text-wrap-mode: wrap; word-break: break-all; font-size: 12.573px; margin-top: 0px !important; margin-bottom: 0px !important;&quot;&gt;&lt;span&gt;&lt;font style=&quot;color: rgb(0, 0, 0);&quot;&gt;&lt;br&gt;&lt;/font&gt;&lt;/span&gt;&lt;/pre&gt;&lt;pre style=&quot;font-family: var(--ds-font-family-code); overflow: auto; padding: calc(var(--ds-md-zoom)*8px)calc(var(--ds-md-zoom)*12px); text-wrap-mode: wrap; word-break: break-all; font-size: 12.573px; margin-top: 0px !important; margin-bottom: 0px !important;&quot;&gt;&lt;font style=&quot;color: rgb(0, 0, 0);&quot;&gt;&amp;lt;&amp;lt;button&amp;gt;&amp;gt;&lt;/font&gt;&lt;/pre&gt;&lt;pre style=&quot;font-family: var(--ds-font-family-code); overflow: auto; padding: calc(var(--ds-md-zoom)*8px)calc(var(--ds-md-zoom)*12px); text-wrap-mode: wrap; word-break: break-all; font-size: 12.573px; margin-top: 0px !important; margin-bottom: 0px !important;&quot;&gt;&lt;font style=&quot;color: rgb(0, 0, 0);&quot;&gt;Food/Drink&lt;/font&gt;&lt;/pre&gt;&lt;pre style=&quot;font-family: var(--ds-font-family-code); overflow: auto; padding: calc(var(--ds-md-zoom)*8px)calc(var(--ds-md-zoom)*12px); text-wrap-mode: wrap; word-break: break-all; font-size: 12.573px; margin-top: 0px !important; margin-bottom: 0px !important;&quot;&gt;&lt;font style=&quot;color: rgb(0, 0, 0);&quot;&gt;&lt;pre style=&quot;font-family: var(--ds-font-family-code); overflow: auto; padding: calc(var(--ds-md-zoom)*8px)calc(var(--ds-md-zoom)*12px); text-wrap-mode: wrap; word-break: break-all; font-size: 12.573px; margin-top: 0px !important; margin-bottom: 0px !important;&quot;&gt;&lt;font style=&quot;color: rgb(0, 0, 0);&quot;&gt;&amp;lt;&amp;lt;button&amp;gt;&amp;gt;&lt;/font&gt;&lt;/pre&gt;&lt;pre style=&quot;font-family: var(--ds-font-family-code); overflow: auto; padding: calc(var(--ds-md-zoom)*8px)calc(var(--ds-md-zoom)*12px); text-wrap-mode: wrap; word-break: break-all; font-size: 12.573px; margin-top: 0px !important; margin-bottom: 0px !important;&quot;&gt;Hygiene&lt;/pre&gt;&lt;pre style=&quot;font-family: var(--ds-font-family-code); overflow: auto; padding: calc(var(--ds-md-zoom)*8px)calc(var(--ds-md-zoom)*12px); text-wrap-mode: wrap; word-break: break-all; font-size: 12.573px; margin-top: 0px !important; margin-bottom: 0px !important;&quot;&gt;&lt;font style=&quot;color: rgb(0, 0, 0);&quot;&gt;&lt;pre style=&quot;font-family: var(--ds-font-family-code); overflow: auto; padding: calc(var(--ds-md-zoom)*8px)calc(var(--ds-md-zoom)*12px); text-wrap-mode: wrap; word-break: break-all; font-size: 12.573px; margin-top: 0px !important; margin-bottom: 0px !important;&quot;&gt;&lt;font style=&quot;color: rgb(0, 0, 0);&quot;&gt;&amp;lt;&amp;lt;button&amp;gt;&amp;gt;&lt;/font&gt;&lt;/pre&gt;&lt;pre style=&quot;font-family: var(--ds-font-family-code); overflow: auto; padding: calc(var(--ds-md-zoom)*8px)calc(var(--ds-md-zoom)*12px); text-wrap-mode: wrap; word-break: break-all; font-size: 12.573px; margin-top: 0px !important; margin-bottom: 0px !important;&quot;&gt;Laundry&lt;/pre&gt;&lt;pre style=&quot;font-family: var(--ds-font-family-code); overflow: auto; padding: calc(var(--ds-md-zoom)*8px)calc(var(--ds-md-zoom)*12px); text-wrap-mode: wrap; word-break: break-all; font-size: 12.573px; margin-top: 0px !important; margin-bottom: 0px !important;&quot;&gt;&lt;font style=&quot;color: rgb(0, 0, 0);&quot;&gt;&lt;pre style=&quot;font-family: var(--ds-font-family-code); overflow: auto; padding: calc(var(--ds-md-zoom)*8px)calc(var(--ds-md-zoom)*12px); text-wrap-mode: wrap; word-break: break-all; font-size: 12.573px; margin-top: 0px !important; margin-bottom: 0px !important;&quot;&gt;&lt;font style=&quot;color: rgb(0, 0, 0);&quot;&gt;&amp;lt;&amp;lt;button&amp;gt;&amp;gt;&lt;/font&gt;&lt;/pre&gt;&lt;pre style=&quot;font-family: var(--ds-font-family-code); overflow: auto; padding: calc(var(--ds-md-zoom)*8px)calc(var(--ds-md-zoom)*12px); text-wrap-mode: wrap; word-break: break-all; font-size: 12.573px; margin-top: 0px !important; margin-bottom: 0px !important;&quot;&gt;Cleaning&lt;/pre&gt;&lt;/font&gt;&lt;/pre&gt;&lt;/font&gt;&lt;/pre&gt;&lt;/font&gt;&lt;/pre&gt;&lt;pre style=&quot;font-family: var(--ds-font-family-code); overflow: auto; padding: calc(var(--ds-md-zoom)*8px)calc(var(--ds-md-zoom)*12px); text-wrap-mode: wrap; word-break: break-all; font-size: 12.573px; margin-top: 0px !important; margin-bottom: 0px !important;&quot;&gt;&lt;span style=&quot;font-family: var(--ds-font-family-code); font-size: 12.573px; white-space-collapse: collapse; background-color: transparent; color: light-dark(rgb(0, 0, 0), rgb(255, 255, 255));&quot;&gt;&lt;/span&gt;&lt;/pre&gt;&lt;pre style=&quot;font-family: var(--ds-font-family-code); overflow: auto; padding: calc(var(--ds-md-zoom)*8px)calc(var(--ds-md-zoom)*12px); text-wrap-mode: wrap; word-break: break-all; font-size: 12.573px; margin-top: 0px !important; margin-bottom: 0px !important;&quot;&gt;&lt;font style=&quot;color: rgb(0, 0, 0);&quot;&gt;&lt;br&gt;&lt;/font&gt;&lt;/pre&gt;&lt;pre style=&quot;font-family: var(--ds-font-family-code); overflow: auto; padding: calc(var(--ds-md-zoom)*8px)calc(var(--ds-md-zoom)*12px); text-wrap-mode: wrap; word-break: break-all; font-size: 12.573px; margin-top: 0px !important; margin-bottom: 0px !important;&quot;&gt;&lt;font style=&quot;color: rgb(0, 0, 0);&quot;&gt;&amp;lt;&amp;lt;button&amp;gt;&amp;gt;  &lt;br&gt;&lt;/font&gt;&lt;/pre&gt;&lt;pre style=&quot;font-family: var(--ds-font-family-code); overflow: auto; padding: calc(var(--ds-md-zoom)*8px)calc(var(--ds-md-zoom)*12px); text-wrap-mode: wrap; word-break: break-all; font-size: 12.573px; margin-top: 0px !important; margin-bottom: 0px !important;&quot;&gt;&lt;font style=&quot;color: rgb(0, 0, 0);&quot;&gt;Add New Item    &lt;/font&gt;&lt;/pre&gt;&lt;pre style=&quot;font-family: var(--ds-font-family-code); overflow: auto; padding: calc(var(--ds-md-zoom)*8px)calc(var(--ds-md-zoom)*12px); text-wrap-mode: wrap; word-break: break-all; font-size: 12.573px; margin-top: 0px !important; margin-bottom: 0px !important;&quot;&gt;&lt;font style=&quot;color: rgb(0, 0, 0);&quot;&gt;&amp;lt;&amp;lt;button&amp;gt;&amp;gt;  &lt;br&gt;Search  for What You Need&lt;/font&gt;&lt;/pre&gt;&lt;pre style=&quot;font-family: var(--ds-font-family-code); overflow: auto; padding: calc(var(--ds-md-zoom)*8px)calc(var(--ds-md-zoom)*12px); text-wrap-mode: wrap; word-break: break-all; font-size: 12.573px; margin-top: 0px !important; margin-bottom: 0px !important;&quot;&gt;&lt;span&gt;&lt;font style=&quot;color: rgb(0, 0, 0);&quot;&gt;  &lt;br&gt;&amp;lt;&amp;lt;button&amp;gt;&amp;gt;  &lt;br&gt;Search  &lt;br&gt;&amp;lt;&amp;lt;button&amp;gt;&amp;gt;  &lt;br&gt;Your Items  &lt;br&gt;&lt;/font&gt;&lt;/span&gt;&lt;/pre&gt;" style="rounded=0;whiteSpace=wrap;html=1;align=center;" parent="1" vertex="1">
          <mxGeometry x="30" y="160" width="170" height="390" as="geometry" />
        </mxCell>
        <mxCell id="U5PggvFnBhWdndm3iS-v-32" style="edgeStyle=orthogonalEdgeStyle;rounded=0;orthogonalLoop=1;jettySize=auto;html=1;exitX=0.5;exitY=1;exitDx=0;exitDy=0;entryX=0.5;entryY=0;entryDx=0;entryDy=0;flowAnimation=0;jumpStyle=arc;jumpSize=19;" parent="1" target="U5PggvFnBhWdndm3iS-v-5" edge="1">
          <mxGeometry relative="1" as="geometry">
            <Array as="points">
              <mxPoint x="575" y="580" />
              <mxPoint x="-120" y="580" />
            </Array>
            <mxPoint x="575" y="550" as="sourcePoint" />
            <mxPoint x="-120" y="660" as="targetPoint" />
          </mxGeometry>
        </mxCell>
        <mxCell id="U5PggvFnBhWdndm3iS-v-3" value="&lt;pre style=&quot;font-family: var(--ds-font-family-code); overflow: auto; padding: calc(var(--ds-md-zoom)*8px)calc(var(--ds-md-zoom)*12px); text-wrap-mode: wrap; word-break: break-all; font-size: 12.573px; margin-top: 0px !important; margin-bottom: 0px !important;&quot;&gt;&lt;font&gt;&amp;lt;&amp;lt;form&amp;gt;&amp;gt;  &lt;br&gt;Search Screen&lt;/font&gt;&lt;/pre&gt;&lt;pre style=&quot;font-family: var(--ds-font-family-code); overflow: auto; padding: calc(var(--ds-md-zoom)*8px)calc(var(--ds-md-zoom)*12px); text-wrap-mode: wrap; word-break: break-all; font-size: 12.573px; margin-top: 0px !important; margin-bottom: 0px !important;&quot;&gt;&lt;font&gt;  &lt;br&gt;&amp;lt;&amp;lt;input&amp;gt;&amp;gt;  &lt;br&gt;&quot;I&#39;m Searching for...&quot;  &lt;br&gt;&amp;lt;&amp;lt;list&amp;gt;&amp;gt;  &lt;br&gt;Previous Searches (Strawberries, Dish Soap, Detergent)  &lt;br&gt;&lt;/font&gt;&lt;/pre&gt;&lt;div&gt;&lt;br&gt;&lt;/div&gt;" style="rounded=0;whiteSpace=wrap;html=1;align=center;" parent="1" vertex="1">
          <mxGeometry x="510" y="400" width="130" height="160" as="geometry" />
        </mxCell>
        <mxCell id="U5PggvFnBhWdndm3iS-v-4" value="&lt;div&gt;&amp;lt;&amp;lt;window&amp;gt;&amp;gt;&amp;nbsp;&amp;nbsp;&lt;/div&gt;&lt;div&gt;Your Items Screen&amp;nbsp;&lt;/div&gt;&lt;div&gt;&amp;nbsp;&lt;/div&gt;&lt;div&gt;&amp;lt;&amp;lt;list&amp;gt;&amp;gt;&amp;nbsp;&amp;nbsp;&lt;/div&gt;&lt;div&gt;Categories (Food/Drink, Hygiene, Laundry, Cleaning)&amp;nbsp;&amp;nbsp;&lt;/div&gt;&lt;div&gt;&amp;lt;&amp;lt;button&amp;gt;&amp;gt;&amp;nbsp;&amp;nbsp;&lt;/div&gt;&lt;div&gt;+ Add Item&amp;nbsp;&amp;nbsp;&lt;/div&gt;&lt;div&gt;&amp;lt;&amp;lt;button&amp;gt;&amp;gt;&amp;nbsp;&amp;nbsp;&lt;/div&gt;&lt;div&gt;View Item Details&amp;nbsp;&amp;nbsp;&lt;/div&gt;" style="rounded=0;whiteSpace=wrap;html=1;" parent="1" vertex="1">
          <mxGeometry x="-240" y="400" width="120" height="160" as="geometry" />
        </mxCell>
        <mxCell id="U5PggvFnBhWdndm3iS-v-5" value="&lt;pre style=&quot;font-family: var(--ds-font-family-code); overflow: auto; padding: calc(var(--ds-md-zoom)*8px)calc(var(--ds-md-zoom)*12px); text-wrap-mode: wrap; word-break: break-all; font-size: 12.573px; margin-top: 0px !important; margin-bottom: 0px !important;&quot;&gt;&lt;font&gt;&amp;lt;&amp;lt;window&amp;gt;&amp;gt;  &lt;br&gt;Item Details&lt;/font&gt;&lt;/pre&gt;&lt;pre style=&quot;font-family: var(--ds-font-family-code); overflow: auto; padding: calc(var(--ds-md-zoom)*8px)calc(var(--ds-md-zoom)*12px); text-wrap-mode: wrap; word-break: break-all; font-size: 12.573px; margin-top: 0px !important; margin-bottom: 0px !important;&quot;&gt;&lt;font&gt;&lt;br&gt;&lt;/font&gt;&lt;/pre&gt;&lt;pre style=&quot;font-family: var(--ds-font-family-code); overflow: auto; padding: calc(var(--ds-md-zoom)*8px)calc(var(--ds-md-zoom)*12px); text-wrap-mode: wrap; word-break: break-all; font-size: 12.573px; margin-top: 0px !important; margin-bottom: 0px !important;&quot;&gt;&lt;font&gt;&amp;lt;&amp;lt;button&amp;gt;&amp;gt;&lt;/font&gt;&lt;/pre&gt;&lt;pre style=&quot;font-family: var(--ds-font-family-code); overflow: auto; padding: calc(var(--ds-md-zoom)*8px)calc(var(--ds-md-zoom)*12px); text-wrap-mode: wrap; word-break: break-all; font-size: 12.573px; margin-top: 0px !important; margin-bottom: 0px !important;&quot;&gt;&lt;font&gt;Back Arrow (&amp;lt;)&lt;/font&gt;&lt;/pre&gt;&lt;pre style=&quot;font-family: var(--ds-font-family-code); overflow: auto; padding: calc(var(--ds-md-zoom)*8px)calc(var(--ds-md-zoom)*12px); text-wrap-mode: wrap; word-break: break-all; font-size: 12.573px; margin-top: 0px !important; margin-bottom: 0px !important;&quot;&gt;&lt;font&gt;  &lt;br&gt;&amp;lt;&amp;lt;table&amp;gt;&amp;gt;  &lt;br&gt;Quantity/Expiration/Location  &lt;br&gt;&amp;lt;&amp;lt;button&amp;gt;&amp;gt;  &lt;br&gt;Edit Item   &lt;br&gt;&lt;pre style=&quot;font-family: var(--ds-font-family-code); overflow: auto; padding: calc(var(--ds-md-zoom)*8px)calc(var(--ds-md-zoom)*12px); text-wrap-mode: wrap; word-break: break-all; font-size: 12.573px; margin-top: 0px !important; margin-bottom: 0px !important;&quot;&gt;&amp;lt;&amp;lt;table&amp;gt;&amp;gt;  &lt;br&gt;Usage History  &lt;/pre&gt;&amp;lt;&amp;lt;section&amp;gt;&amp;gt;  &lt;br&gt;Purchase History&lt;br&gt;&lt;/font&gt;&lt;/pre&gt;&lt;div&gt;&lt;br&gt;&lt;/div&gt;" style="rounded=0;whiteSpace=wrap;html=1;align=center;" parent="1" vertex="1">
          <mxGeometry x="-240" y="670" width="240" height="240" as="geometry" />
        </mxCell>
        <mxCell id="U5PggvFnBhWdndm3iS-v-6" value="&lt;div&gt;&lt;span style=&quot;background-color: transparent; color: light-dark(rgb(0, 0, 0), rgb(255, 255, 255));&quot;&gt;&amp;lt;&amp;lt;form&amp;gt;&amp;gt;&amp;nbsp;&amp;nbsp;&lt;/span&gt;&lt;/div&gt;&lt;div&gt;Add/Edit Item Screen&amp;nbsp;&lt;/div&gt;&lt;div&gt;&amp;nbsp;&lt;/div&gt;&lt;div&gt;&lt;span style=&quot;background-color: transparent; color: light-dark(rgb(0, 0, 0), rgb(255, 255, 255));&quot;&gt;&amp;lt;&amp;lt;button&amp;gt;&lt;/span&gt;&lt;/div&gt;&lt;div&gt;&lt;span style=&quot;background-color: transparent; color: light-dark(rgb(0, 0, 0), rgb(255, 255, 255));&quot;&gt;Back Arrow (&amp;lt;)&amp;nbsp;&lt;/span&gt;&lt;/div&gt;&lt;div&gt;&lt;span style=&quot;background-color: transparent; color: light-dark(rgb(0, 0, 0), rgb(255, 255, 255));&quot;&gt;&amp;lt;&amp;lt;input&amp;gt;&amp;gt;&lt;/span&gt;&lt;/div&gt;&lt;div&gt;&lt;span style=&quot;background-color: transparent; color: light-dark(rgb(0, 0, 0), rgb(255, 255, 255));&quot;&gt;New Item&lt;/span&gt;&lt;/div&gt;&lt;div&gt;&amp;lt;&amp;lt;input&amp;gt;&amp;gt;&lt;/div&gt;&lt;div&gt;Category&lt;/div&gt;&lt;div&gt;&lt;span style=&quot;background-color: transparent; color: light-dark(rgb(0, 0, 0), rgb(255, 255, 255));&quot;&gt;&lt;br&gt;&lt;/span&gt;&lt;/div&gt;&lt;div&gt;&lt;span style=&quot;background-color: transparent; color: light-dark(rgb(0, 0, 0), rgb(255, 255, 255));&quot;&gt;&amp;lt;&amp;lt;button&amp;gt;&amp;gt;&lt;/span&gt;&lt;/div&gt;&lt;div&gt;&lt;span style=&quot;background-color: transparent; color: light-dark(rgb(0, 0, 0), rgb(255, 255, 255));&quot;&gt;Delete Item&lt;/span&gt;&lt;/div&gt;&lt;div&gt;&lt;span style=&quot;background-color: transparent; color: light-dark(rgb(0, 0, 0), rgb(255, 255, 255));&quot;&gt;&lt;br&gt;&lt;/span&gt;&lt;/div&gt;&lt;div&gt;&amp;lt;&amp;lt;input&amp;gt;&amp;gt;&amp;nbsp;&amp;nbsp;&lt;/div&gt;&lt;div&gt;Quantity | Expiration | Location&amp;nbsp;&amp;nbsp;&lt;/div&gt;&lt;div&gt;&amp;lt;&amp;lt;button&amp;gt;&amp;gt;&amp;nbsp;&amp;nbsp;&lt;/div&gt;&lt;div&gt;Add New Entry&amp;nbsp; (add row)&lt;/div&gt;&lt;div&gt;&amp;lt;&amp;lt;button&amp;gt;&amp;gt;&amp;nbsp;&amp;nbsp;&lt;/div&gt;&lt;div&gt;Delete New Entry (delete row)&lt;/div&gt;" style="rounded=0;whiteSpace=wrap;html=1;" parent="1" vertex="1">
          <mxGeometry x="350" y="660" width="210" height="280" as="geometry" />
        </mxCell>
        <mxCell id="U5PggvFnBhWdndm3iS-v-9" value="&lt;pre style=&quot;font-family: var(--ds-font-family-code); overflow: auto; padding: calc(var(--ds-md-zoom)*8px)calc(var(--ds-md-zoom)*12px); text-wrap-mode: wrap; word-break: break-all; font-size: 12.573px; text-align: start; margin-top: 0px !important; margin-bottom: 0px !important;&quot;&gt;&lt;br&gt;&lt;/pre&gt;" style="text;html=1;align=center;verticalAlign=middle;resizable=0;points=[];autosize=1;strokeColor=none;fillColor=none;" parent="1" vertex="1">
          <mxGeometry x="280" y="400" width="20" height="30" as="geometry" />
        </mxCell>
        <mxCell id="U5PggvFnBhWdndm3iS-v-11" value="&lt;div&gt;Click Search button&amp;nbsp;&amp;nbsp;&lt;/div&gt;" style="text;html=1;align=center;verticalAlign=middle;whiteSpace=wrap;rounded=0;" parent="1" vertex="1">
          <mxGeometry x="210" y="450" width="300" height="30" as="geometry" />
        </mxCell>
        <mxCell id="U5PggvFnBhWdndm3iS-v-13" value="&lt;div&gt;Click Your Items button&amp;nbsp;&amp;nbsp;&lt;/div&gt;" style="text;html=1;align=center;verticalAlign=middle;whiteSpace=wrap;rounded=0;" parent="1" vertex="1">
          <mxGeometry x="-130" y="500" width="160" height="30" as="geometry" />
        </mxCell>
        <mxCell id="U5PggvFnBhWdndm3iS-v-17" value="Click &quot;View Item Details&quot; on an item" style="text;html=1;align=center;verticalAlign=middle;whiteSpace=wrap;rounded=0;" parent="1" vertex="1">
          <mxGeometry x="-280" y="570" width="110" height="50" as="geometry" />
        </mxCell>
        <mxCell id="U5PggvFnBhWdndm3iS-v-20" style="edgeStyle=orthogonalEdgeStyle;rounded=0;orthogonalLoop=1;jettySize=auto;html=1;exitX=1;exitY=0.588;exitDx=0;exitDy=0;exitPerimeter=0;entryX=0;entryY=0.75;entryDx=0;entryDy=0;" parent="1" edge="1" target="U5PggvFnBhWdndm3iS-v-6" source="U5PggvFnBhWdndm3iS-v-5">
          <mxGeometry relative="1" as="geometry">
            <mxPoint x="270" y="870" as="targetPoint" />
            <mxPoint x="20" y="830" as="sourcePoint" />
            <Array as="points">
              <mxPoint y="820" />
              <mxPoint x="20" y="820" />
              <mxPoint x="20" y="790" />
              <mxPoint x="250" y="790" />
              <mxPoint x="250" y="870" />
            </Array>
          </mxGeometry>
        </mxCell>
        <mxCell id="U5PggvFnBhWdndm3iS-v-23" value="Click &quot;Add New Item&quot; or &quot;Edit Item&quot;" style="text;html=1;align=center;verticalAlign=middle;whiteSpace=wrap;rounded=0;" parent="1" vertex="1">
          <mxGeometry x="90" y="800" width="110" height="30" as="geometry" />
        </mxCell>
        <mxCell id="U5PggvFnBhWdndm3iS-v-24" style="edgeStyle=orthogonalEdgeStyle;rounded=0;orthogonalLoop=1;jettySize=auto;html=1;jumpStyle=arc;jumpSize=19;strokeColor=default;endSize=0;endArrow=classic;endFill=1;exitX=1.002;exitY=0.609;exitDx=0;exitDy=0;exitPerimeter=0;" parent="1" edge="1">
          <mxGeometry relative="1" as="geometry">
            <Array as="points">
              <mxPoint x="195" y="392.49" />
              <mxPoint x="235" y="392.49" />
              <mxPoint x="235" y="622.49" />
              <mxPoint x="35" y="622.49" />
            </Array>
            <mxPoint x="195.34000000000015" y="390" as="sourcePoint" />
            <mxPoint x="35" y="792.49" as="targetPoint" />
          </mxGeometry>
        </mxCell>
        <mxCell id="U5PggvFnBhWdndm3iS-v-25" value="&lt;div&gt;&lt;span style=&quot;background-color: transparent; color: light-dark(rgb(0, 0, 0), rgb(255, 255, 255));&quot;&gt;&amp;lt;&amp;lt;report&amp;gt;&amp;gt;&amp;nbsp;&amp;nbsp;&lt;/span&gt;&lt;/div&gt;&lt;div&gt;&quot;Item [X] has expired&quot;&amp;nbsp;&amp;nbsp;&lt;/div&gt;&lt;div&gt;&amp;lt;&amp;lt;report&amp;gt;&amp;gt;&amp;nbsp;&amp;nbsp;&lt;/div&gt;&lt;div&gt;&quot;Low quantity alert for [Y]&quot;&amp;nbsp;&amp;nbsp;&lt;/div&gt;" style="rounded=0;whiteSpace=wrap;html=1;" parent="1" vertex="1">
          <mxGeometry x="-710" y="670" width="150" height="200" as="geometry" />
        </mxCell>
        <mxCell id="U5PggvFnBhWdndm3iS-v-27" value="&lt;div&gt;Time Triggered&amp;nbsp;&amp;nbsp;&lt;/div&gt;" style="text;html=1;align=center;verticalAlign=middle;whiteSpace=wrap;rounded=0;" parent="1" vertex="1">
          <mxGeometry x="-540" y="755" width="120" height="30" as="geometry" />
        </mxCell>
        <mxCell id="lScyF1-KqdpZZoFxuNJG-6" value="" style="endArrow=none;html=1;rounded=0;jumpStyle=arc;jumpSize=19;" parent="1" edge="1">
          <mxGeometry width="50" height="50" relative="1" as="geometry">
            <mxPoint x="200" y="430" as="sourcePoint" />
            <mxPoint x="280" y="430" as="targetPoint" />
            <Array as="points">
              <mxPoint x="280" y="430" />
              <mxPoint x="280" y="480" />
            </Array>
          </mxGeometry>
        </mxCell>
        <mxCell id="lScyF1-KqdpZZoFxuNJG-10" value="" style="endArrow=none;html=1;rounded=0;" parent="1" edge="1">
          <mxGeometry width="50" height="50" relative="1" as="geometry">
            <mxPoint y="500" as="sourcePoint" />
            <mxPoint x="30" y="270" as="targetPoint" />
            <Array as="points">
              <mxPoint y="430" />
              <mxPoint y="270" />
            </Array>
          </mxGeometry>
        </mxCell>
        <mxCell id="lScyF1-KqdpZZoFxuNJG-11" value="" style="endArrow=none;html=1;rounded=0;" parent="1" edge="1">
          <mxGeometry width="50" height="50" relative="1" as="geometry">
            <mxPoint y="300" as="sourcePoint" />
            <mxPoint x="30" y="300" as="targetPoint" />
          </mxGeometry>
        </mxCell>
        <mxCell id="lScyF1-KqdpZZoFxuNJG-12" value="" style="endArrow=none;html=1;rounded=0;" parent="1" edge="1">
          <mxGeometry width="50" height="50" relative="1" as="geometry">
            <mxPoint y="330" as="sourcePoint" />
            <mxPoint x="30" y="330" as="targetPoint" />
          </mxGeometry>
        </mxCell>
        <mxCell id="lScyF1-KqdpZZoFxuNJG-13" value="" style="endArrow=none;html=1;rounded=0;" parent="1" edge="1">
          <mxGeometry width="50" height="50" relative="1" as="geometry">
            <mxPoint y="364.41" as="sourcePoint" />
            <mxPoint x="30" y="364.41" as="targetPoint" />
          </mxGeometry>
        </mxCell>
        <mxCell id="lScyF1-KqdpZZoFxuNJG-15" value="" style="endArrow=none;html=1;rounded=0;jumpStyle=arc;jumpSize=19;" parent="1" edge="1">
          <mxGeometry width="50" height="50" relative="1" as="geometry">
            <mxPoint x="40" y="790" as="sourcePoint" />
            <mxPoint x="-240" y="520" as="targetPoint" />
            <Array as="points">
              <mxPoint x="40" y="960" />
              <mxPoint x="-800" y="960" />
              <mxPoint x="-800" y="520" />
              <mxPoint x="-400" y="520" />
            </Array>
          </mxGeometry>
        </mxCell>
        <mxCell id="lScyF1-KqdpZZoFxuNJG-17" value="" style="endArrow=classic;html=1;rounded=0;exitX=0;exitY=0.5;exitDx=0;exitDy=0;entryX=0.988;entryY=0.603;entryDx=0;entryDy=0;entryPerimeter=0;" parent="1" source="U5PggvFnBhWdndm3iS-v-5" target="U5PggvFnBhWdndm3iS-v-25" edge="1">
          <mxGeometry width="50" height="50" relative="1" as="geometry">
            <mxPoint x="-340" y="830" as="sourcePoint" />
            <mxPoint x="-460" y="790" as="targetPoint" />
          </mxGeometry>
        </mxCell>
        <mxCell id="lScyF1-KqdpZZoFxuNJG-20" value="" style="endArrow=classic;html=1;rounded=0;entryX=0.992;entryY=0.338;entryDx=0;entryDy=0;entryPerimeter=0;jumpStyle=arc;jumpSize=19;" parent="1" target="U5PggvFnBhWdndm3iS-v-5" edge="1">
          <mxGeometry width="50" height="50" relative="1" as="geometry">
            <mxPoint x="350" y="830" as="sourcePoint" />
            <mxPoint x="240" y="700" as="targetPoint" />
            <Array as="points">
              <mxPoint x="320" y="830" />
              <mxPoint x="320" y="750" />
            </Array>
          </mxGeometry>
        </mxCell>
        <mxCell id="lScyF1-KqdpZZoFxuNJG-21" value="Click Delete Item" style="text;html=1;align=center;verticalAlign=middle;whiteSpace=wrap;rounded=0;" parent="1" vertex="1">
          <mxGeometry x="80" y="720" width="110" height="30" as="geometry" />
        </mxCell>
        <mxCell id="lScyF1-KqdpZZoFxuNJG-22" value="Click Search History Entry" style="text;html=1;align=center;verticalAlign=middle;whiteSpace=wrap;rounded=0;" parent="1" vertex="1">
          <mxGeometry x="400" y="530" width="110" height="50" as="geometry" />
        </mxCell>
        <mxCell id="kSh8dsyPfM6d0EjHm7KO-3" value="" style="endArrow=none;html=1;rounded=0;jumpStyle=arc;jumpSize=19;" edge="1" parent="1">
          <mxGeometry width="50" height="50" relative="1" as="geometry">
            <mxPoint x="-320" y="60" as="sourcePoint" />
            <mxPoint x="-240" y="750" as="targetPoint" />
            <Array as="points">
              <mxPoint x="-320" y="750" />
            </Array>
          </mxGeometry>
        </mxCell>
        <mxCell id="kSh8dsyPfM6d0EjHm7KO-4" value="" style="endArrow=classic;html=1;rounded=0;entryX=0.433;entryY=-0.025;entryDx=0;entryDy=0;entryPerimeter=0;" edge="1" parent="1" target="U5PggvFnBhWdndm3iS-v-4">
          <mxGeometry width="50" height="50" relative="1" as="geometry">
            <mxPoint x="-320" y="60" as="sourcePoint" />
            <mxPoint x="-190" y="60" as="targetPoint" />
            <Array as="points">
              <mxPoint x="-188" y="60" />
            </Array>
          </mxGeometry>
        </mxCell>
        <mxCell id="kSh8dsyPfM6d0EjHm7KO-5" value="" style="endArrow=classic;html=1;rounded=0;" edge="1" parent="1">
          <mxGeometry width="50" height="50" relative="1" as="geometry">
            <mxPoint x="-190" y="60" as="sourcePoint" />
            <mxPoint x="120" y="160" as="targetPoint" />
            <Array as="points">
              <mxPoint x="120" y="60" />
            </Array>
          </mxGeometry>
        </mxCell>
        <mxCell id="kSh8dsyPfM6d0EjHm7KO-6" value="" style="endArrow=classic;html=1;rounded=0;entryX=0.408;entryY=-0.025;entryDx=0;entryDy=0;entryPerimeter=0;" edge="1" parent="1" target="U5PggvFnBhWdndm3iS-v-3">
          <mxGeometry width="50" height="50" relative="1" as="geometry">
            <mxPoint x="115" y="60" as="sourcePoint" />
            <mxPoint x="570" y="400" as="targetPoint" />
            <Array as="points">
              <mxPoint x="425" y="60" />
              <mxPoint x="560" y="60" />
              <mxPoint x="560" y="230" />
            </Array>
          </mxGeometry>
        </mxCell>
        <mxCell id="kSh8dsyPfM6d0EjHm7KO-7" value="&lt;div&gt;Click Back Arrow to Prior Screen&lt;/div&gt;" style="text;html=1;align=center;verticalAlign=middle;whiteSpace=wrap;rounded=0;" vertex="1" parent="1">
          <mxGeometry x="20" y="20" width="160" height="30" as="geometry" />
        </mxCell>
        <mxCell id="kSh8dsyPfM6d0EjHm7KO-16" value="" style="endArrow=none;html=1;rounded=0;" edge="1" parent="1">
          <mxGeometry width="50" height="50" relative="1" as="geometry">
            <mxPoint x="-120" y="630" as="sourcePoint" />
            <mxPoint x="-170" y="560" as="targetPoint" />
            <Array as="points">
              <mxPoint x="-170" y="630" />
            </Array>
          </mxGeometry>
        </mxCell>
        <mxCell id="kSh8dsyPfM6d0EjHm7KO-17" value="" style="endArrow=classic;html=1;rounded=0;exitX=-0.01;exitY=0.218;exitDx=0;exitDy=0;exitPerimeter=0;jumpStyle=arc;jumpSize=19;" edge="1" parent="1" source="U5PggvFnBhWdndm3iS-v-6">
          <mxGeometry width="50" height="50" relative="1" as="geometry">
            <mxPoint x="250" y="730" as="sourcePoint" />
            <mxPoint y="721" as="targetPoint" />
            <Array as="points">
              <mxPoint x="200" y="721" />
              <mxPoint x="200" y="680" />
              <mxPoint x="50" y="680" />
              <mxPoint x="50" y="721" />
            </Array>
          </mxGeometry>
        </mxCell>
        <mxCell id="kSh8dsyPfM6d0EjHm7KO-18" value="Click Back Arrow" style="text;html=1;align=center;verticalAlign=middle;whiteSpace=wrap;rounded=0;" vertex="1" parent="1">
          <mxGeometry x="220" y="690" width="110" height="30" as="geometry" />
        </mxCell>
      </root>
    </mxGraphModel>
  </diagram>
</mxfile>
